Mailpile-Regular.ufo
<glyph name="parenright" format="1">
  <advance width="600"/>
  <unicode hex="0029"/>
  <outline>
    <contour>
      <point x="67" y="1522" type="line"/>
      <point x="282" y="1343"/>
      <point x="370" y="1066"/>
      <point x="370" y="749" type="curve" smooth="yes"/>
      <point x="370" y="431"/>
      <point x="282" y="134"/>
      <point x="67" y="-45" type="curve"/>
      <point x="139" y="-150" type="line"/>
      <point x="335" y="-17"/>
      <point x="492" y="421"/>
      <point x="490" y="748" type="curve"/>
      <point x="488" y="1122"/>
      <point x="368" y="1450"/>
      <point x="125" y="1640" type="curve"/>
    </contour>
  </outline>
</glyph>
<glyph name="slash" format="1">
  <advance width="658"/>
  <unicode hex="002F"/>
  <outline>
    <contour>
      <point x="512" y="1577" type="line"/>
      <point x="20" y="-77" type="line"/>
      <point x="147" y="-77" type="line"/>
      <point x="638" y="1577" type="line"/>
    </contour>
  </outline>
</glyph>
<glyph name="one" format="1">
  <advance width="897"/>
  <unicode hex="0031"/>
  <outline>
    <contour>
      <point x="98" y="1410" type="line"/>
      <point x="163" y="1284" type="line"/>
      <point x="405" y="1370" type="line"/>
      <point x="405" y="130" type="line"/>
      <point x="99.9999" y="130" type="line"/>
      <point x="99.9999" y="0" type="line"/>
      <point x="842" y="0" type="line"/>
      <point x="842" y="130" type="line"/>
      <point x="548" y="130" type="line"/>
      <point x="548" y="1416" type="line" smooth="yes"/>
      <point x="548" y="1510"/>
      <point x="491" y="1551"/>
      <point x="402" y="1519" type="curve" smooth="yes"/>
    </contour>
  </outline>
</glyph>
<glyph name="less" format="1">
  <advance width="1196"/>
  <unicode hex="003C"/>
  <outline>
    <contour>
      <point x="195" y="829" type="line"/>
      <point x="195" y="662" type="line"/>
      <point x="1001" y="315" type="line"/>
      <point x="1001" y="463" type="line"/>
      <point x="319" y="745" type="line"/>
      <point x="1001" y="1028" type="line"/>
      <point x="1001" y="1176" type="line"/>
    </contour>
  </outline>
</glyph>
<glyph name="C" format="1">
  <advance width="1400"/>
  <unicode hex="0043"/>
  <outline>
    <contour>
      <point x="362" y="1534"/>
      <point x="41" y="1228"/>
      <point x="41" y="767" type="curve" smooth="yes"/>
      <point x="41" y="301"/>
      <point x="347" y="-22"/>
      <point x="815" y="-22" type="curve" smooth="yes"/>
      <point x="1067" y="-22"/>
      <point x="1283" y="85"/>
      <point x="1442" y="302" type="curve"/>
      <point x="1327" y="387" type="line"/>
      <point x="1203" y="207"/>
      <point x="997" y="121"/>
      <point x="821" y="121" type="curve" smooth="yes"/>
      <point x="435" y="121"/>
      <point x="186" y="389"/>
      <point x="186" y="790" type="curve" smooth="yes"/>
      <point x="186" y="1132"/>
      <point x="448" y="1391"/>
      <point x="833" y="1391" type="curve" smooth="yes"/>
      <point x="942" y="1391"/>
      <point x="1077" y="1365"/>
      <point x="1168" y="1312" type="curve" smooth="yes"/>
      <point x="1233" y="1275"/>
      <point x="1281" y="1225"/>
      <point x="1281" y="1139" type="curve" smooth="yes"/>
      <point x="1281" y="1105" type="line"/>
      <point x="1420" y="1105" type="line"/>
      <point x="1420" y="1152" type="line" smooth="yes"/>
      <point x="1421" y="1297"/>
      <point x="1358" y="1382"/>
      <point x="1230" y="1447" type="curve" smooth="yes"/>
      <point x="1149" y="1488"/>
      <point x="1014" y="1534"/>
      <point x="832" y="1534" type="curve" smooth="yes"/>
    </contour>
    <contour>
      <point x="830" y="1495" type="move" name="top"/>
    </contour>
    <contour>
      <point x="700" y="0" type="move" name="bottom"/>
    </contour>
  </outline>
</glyph>
<glyph name="R" format="1">
  <advance width="1391"/>
  <unicode hex="0052"/>
  <outline>
    <contour>
      <point x="100" y="1497" type="line"/>
      <point x="100" y="1367" type="line"/>
      <point x="236" y="1367" type="line"/>
      <point x="236" y="2" type="line"/>
      <point x="382" y="2" type="line"/>
      <point x="382" y="631" type="line"/>
      <point x="580" y="631" type="line" smooth="yes"/>
      <point x="719" y="630"/>
      <point x="749" y="611"/>
      <point x="770" y="597" type="curve" smooth="yes"/>
      <point x="806" y="573"/>
      <point x="835" y="529"/>
      <point x="862" y="467" type="curve" smooth="yes"/>
      <point x="1040" y="47" type="line"/>
      <point x="1047" y="32"/>
      <point x="1057" y="20"/>
      <point x="1069" y="12" type="curve" smooth="yes"/>
      <point x="1081" y="4"/>
      <point x="1096" y="0"/>
      <point x="1114" y="0" type="curve" smooth="yes"/>
      <point x="1321" y="0" type="line"/>
      <point x="1321" y="130" type="line"/>
      <point x="1161" y="130" type="line"/>
      <point x="1013" y="489" type="line" smooth="yes"/>
      <point x="982.235" y="562.439"/>
      <point x="924.878" y="655.575"/>
      <point x="848.748" y="682.397" type="curve"/>
      <point x="1021.94" y="737.633"/>
      <point x="1146" y="852.97"/>
      <point x="1146" y="1065" type="curve" smooth="yes"/>
      <point x="1146" y="1347"/>
      <point x="930" y="1497"/>
      <point x="632" y="1497" type="curve" smooth="yes"/>
    </contour>
    <contour>
      <point x="842" y="1367"/>
      <point x="996" y="1281"/>
      <point x="996" y="1066" type="curve" smooth="yes"/>
      <point x="996" y="857"/>
      <point x="852" y="761"/>
      <point x="632" y="761" type="curve" smooth="yes"/>
      <point x="383" y="761" type="line"/>
      <point x="383" y="1367" type="line"/>
      <point x="632" y="1367" type="line" smooth="yes"/>
    </contour>
    <contour>
      <point x="696" y="1495" type="move" name="top"/>
    </contour>
    <contour>
      <point x="696" y="0" type="move" name="bottom"/>
    </contour>
  </outline>
</glyph>
<glyph name="backslash" format="1">
  <advance width="743"/>
  <unicode hex="005C"/>
  <outline>
    <contour>
      <point x="53" y="1577" type="line"/>
      <point x="545" y="-77" type="line"/>
      <point x="676" y="-77" type="line"/>
      <point x="185" y="1577" type="line"/>
    </contour>
  </outline>
</glyph>
<glyph name="h" format="1">
  <advance width="1287"/>
  <unicode hex="0068"/>
  <outline>
    <contour>
      <point x="331" y="1435" type="line" smooth="yes"/>
      <point x="331" y="1456"/>
      <point x="322" y="1471"/>
      <point x="303" y="1481" type="curve" smooth="yes"/>
      <point x="284" y="1491"/>
      <point x="264" y="1496"/>
      <point x="243" y="1496" type="curve" smooth="yes"/>
      <point x="63" y="1496" type="line"/>
      <point x="63" y="1372" type="line"/>
      <point x="195" y="1372" type="line"/>
      <point x="195" y="1" type="line"/>
      <point x="331" y="1" type="line"/>
    </contour>
    <contour>
      <point x="502" y="1104"/>
      <point x="391" y="1040"/>
      <point x="302" y="936" type="curve"/>
      <point x="322" y="794" type="line"/>
      <point x="398" y="896"/>
      <point x="507" y="979"/>
      <point x="652" y="979" type="curve" smooth="yes"/>
      <point x="789" y="979"/>
      <point x="944" y="905"/>
      <point x="944" y="694" type="curve" smooth="yes"/>
      <point x="944" y="211" type="line" smooth="yes"/>
      <point x="944" y="127"/>
      <point x="956" y="71"/>
      <point x="981" y="43" type="curve" smooth="yes"/>
      <point x="1006" y="15"/>
      <point x="1047" y="0"/>
      <point x="1107" y="0" type="curve"/>
      <point x="1259" y="0" type="line"/>
      <point x="1259" y="124" type="line"/>
      <point x="1168" y="124" type="line" smooth="yes"/>
      <point x="1139" y="124"/>
      <point x="1117" y="129"/>
      <point x="1102" y="139" type="curve" smooth="yes"/>
      <point x="1087" y="149"/>
      <point x="1080" y="173"/>
      <point x="1080" y="211" type="curve" smooth="yes"/>
      <point x="1080" y="717" type="line" smooth="yes"/>
      <point x="1080" y="985"/>
      <point x="871" y="1104"/>
      <point x="660" y="1104" type="curve" smooth="yes"/>
    </contour>
  </outline>
</glyph>
<glyph name="i" format="1">
  <advance width="595"/>
  <unicode hex="0069"/>
  <outline>
    <contour>
      <point x="233" y="1481"/>
      <point x="183" y="1436"/>
      <point x="183" y="1381" type="curve" smooth="yes"/>
      <point x="183" y="1331"/>
      <point x="231" y="1286"/>
      <point x="281" y="1286" type="curve" smooth="yes"/>
      <point x="334" y="1286"/>
      <point x="378" y="1329"/>
      <point x="378" y="1381" type="curve" smooth="yes"/>
      <point x="378" y="1436"/>
      <point x="336" y="1481"/>
      <point x="281" y="1481" type="curve" smooth="yes"/>
    </contour>
    <contour>
      <point x="92" y="960" type="line"/>
      <point x="224" y="960" type="line"/>
      <point x="224" y="206" type="line" smooth="yes"/>
      <point x="224" y="72"/>
      <point x="265" y="0"/>
      <point x="386" y="0" type="curve" smooth="yes"/>
      <point x="516" y="0" type="line"/>
      <point x="516" y="124" type="line"/>
      <point x="446" y="124" type="line" smooth="yes"/>
      <point x="381" y="124"/>
      <point x="360" y="147"/>
      <point x="360" y="217" type="curve" smooth="yes"/>
      <point x="360" y="1019" type="line" smooth="yes"/>
      <point x="360" y="1040"/>
      <point x="354" y="1056"/>
      <point x="343" y="1067" type="curve" smooth="yes"/>
      <point x="332" y="1078"/>
      <point x="316" y="1084"/>
      <point x="295" y="1084" type="curve" smooth="yes"/>
      <point x="92" y="1084" type="line"/>
    </contour>
  </outline>
</glyph>
<glyph name="p" format="1">
  <advance width="1300"/>
  <unicode hex="0070"/>
  <outline>
    <contour>
      <point x="55" y="960" type="line"/>
      <point x="185" y="960" type="line"/>
      <point x="185" y="-477" type="line"/>
      <point x="321" y="-477" type="line"/>
      <point x="321" y="152" type="line"/>
      <point x="415" y="16"/>
      <point x="542" y="-20"/>
      <point x="704" y="-20" type="curve" smooth="yes"/>
      <point x="1039" y="-20"/>
      <point x="1216" y="204"/>
      <point x="1216" y="548" type="curve" smooth="yes"/>
      <point x="1216" y="907"/>
      <point x="1038" y="1104"/>
      <point x="698" y="1104" type="curve" smooth="yes"/>
      <point x="547" y="1104"/>
      <point x="396" y="1044"/>
      <point x="296" y="894" type="curve"/>
      <point x="298" y="888" type="line"/>
      <point x="298" y="1005" type="line" smooth="yes"/>
      <point x="298" y="1066"/>
      <point x="282" y="1082"/>
      <point x="230" y="1082" type="curve" smooth="yes"/>
      <point x="55" y="1082" type="line"/>
    </contour>
    <contour>
      <point x="959" y="979"/>
      <point x="1078" y="824"/>
      <point x="1078" y="546" type="curve" smooth="yes"/>
      <point x="1078" y="278"/>
      <point x="949" y="105"/>
      <point x="703" y="105" type="curve" smooth="yes"/>
      <point x="508" y="105"/>
      <point x="321" y="234"/>
      <point x="321" y="437" type="curve" smooth="yes"/>
      <point x="321" y="605" type="line" smooth="yes"/>
      <point x="321" y="822"/>
      <point x="501" y="979"/>
      <point x="697" y="979" type="curve" smooth="yes"/>
    </contour>
  </outline>
</glyph>
<glyph name="r" format="1">
  <advance width="834"/>
  <unicode hex="0072"/>
  <outline>
    <contour>
      <point x="115" y="959" type="line"/>
      <point x="245" y="959" type="line"/>
      <point x="245" y="-1" type="line"/>
      <point x="382" y="-1" type="line"/>
      <point x="382.723" y="557" type="line"/>
      <point x="388" y="796"/>
      <point x="541.953" y="959.999"/>
      <point x="810" y="959.999" type="curve"/>
      <point x="810" y="1084" type="line"/>
      <point x="585" y="1084"/>
      <point x="431" y="985"/>
      <point x="368" y="800" type="curve"/>
      <point x="369" y="1021" type="line" smooth="yes"/>
      <point x="369" y="1042"/>
      <point x="364" y="1058"/>
      <point x="353" y="1068" type="curve" smooth="yes"/>
      <point x="342" y="1078"/>
      <point x="326" y="1083"/>
      <point x="305" y="1083" type="curve" smooth="yes"/>
      <point x="115" y="1083" type="line"/>
    </contour>
  </outline>
</glyph>
<glyph name="z" format="1">
  <advance width="1073"/>
  <unicode hex="007A"/>
  <outline>
    <contour>
      <point x="173" y="1084" type="line" smooth="yes"/>
      <point x="130" y="1084"/>
      <point x="108" y="1063"/>
      <point x="108" y="1020" type="curve" smooth="yes"/>
      <point x="108" y="839" type="line"/>
      <point x="244" y="839" type="line"/>
      <point x="244" y="963" type="line"/>
      <point x="772" y="963" type="line"/>
      <point x="76" y="98.9999" type="line"/>
      <point x="76" y="-0.999999" type="line"/>
      <point x="914" y="-0.999999" type="line" smooth="yes"/>
      <point x="957" y="-1"/>
      <point x="975" y="20"/>
      <point x="974.999" y="63" type="curve" smooth="yes"/>
      <point x="974.999" y="248" type="line"/>
      <point x="840" y="248" type="line"/>
      <point x="840" y="124" type="line"/>
      <point x="261" y="124" type="line"/>
      <point x="952" y="981.999" type="line"/>
      <point x="952" y="1084" type="line"/>
    </contour>
    <contour>
      <point x="537" y="1084" type="move" name="top"/>
    </contour>
  </outline>
</glyph>
<glyph name="exclamdown" format="1">
  <advance width="575"/>
  <unicode hex="00A1"/>
  <outline>
    <contour>
      <point x="223" y="924" type="line"/>
      <point x="195" y="-210" type="line"/>
      <point x="372" y="-210" type="line"/>
      <point x="345" y="924" type="line"/>
    </contour>
    <contour>
      <point x="226" y="1302"/>
      <point x="177" y="1254"/>
      <point x="177" y="1193" type="curve" smooth="yes"/>
      <point x="177" y="1135"/>
      <point x="228" y="1084"/>
      <point x="286" y="1084" type="curve" smooth="yes"/>
      <point x="347" y="1084"/>
      <point x="395" y="1133"/>
      <point x="395" y="1193" type="curve" smooth="yes"/>
      <point x="395" y="1254"/>
      <point x="347" y="1302"/>
      <point x="286" y="1302" type="curve" smooth="yes"/>
    </contour>
  </outline>
</glyph>
<glyph name="sterling" format="1">
  <advance width="1255"/>
  <unicode hex="00A3"/>
  <outline>
    <contour>
      <point x="394" y="1526"/>
      <point x="266" y="1368"/>
      <point x="266" y="1065" type="curve" smooth="yes"/>
      <point x="266" y="775" type="line"/>
      <point x="78" y="775" type="line"/>
      <point x="78" y="649" type="line"/>
      <point x="266" y="649" type="line"/>
      <point x="266" y="317" type="line" smooth="yes"/>
      <point x="266" y="227"/>
      <point x="232" y="153"/>
      <point x="162" y="94.9999" type="curve"/>
      <point x="162" y="0.999999" type="line"/>
      <point x="1155" y="0.999999" type="line"/>
      <point x="1155" y="261" type="line"/>
      <point x="1019" y="261" type="line"/>
      <point x="1019" y="131" type="line"/>
      <point x="350" y="130" type="line"/>
      <point x="413" y="193"/>
      <point x="412" y="232"/>
      <point x="412" y="336" type="curve" smooth="yes"/>
      <point x="412" y="647" type="line"/>
      <point x="822" y="647" type="line"/>
      <point x="822" y="773" type="line"/>
      <point x="412" y="773" type="line"/>
      <point x="412" y="1063" type="line" smooth="yes"/>
      <point x="412" y="1274"/>
      <point x="494" y="1401"/>
      <point x="697" y="1401" type="curve" smooth="yes"/>
      <point x="863" y="1401"/>
      <point x="966" y="1294"/>
      <point x="1008" y="1120" type="curve"/>
      <point x="1143" y="1154" type="line"/>
      <point x="1090" y="1397"/>
      <point x="944" y="1526"/>
      <point x="699" y="1526" type="curve" smooth="yes"/>
    </contour>
  </outline>
</glyph>
<glyph name="ordfeminine" format="1">
  <advance width="838"/>
  <unicode hex="00AA"/>
  <outline>
    <contour>
      <point x="310" y="1519"/>
      <point x="215" y="1493"/>
      <point x="129" y="1451" type="curve"/>
      <point x="172" y="1353" type="line"/>
      <point x="240" y="1393"/>
      <point x="313" y="1418"/>
      <point x="382" y="1418" type="curve" smooth="yes"/>
      <point x="505" y="1418"/>
      <point x="536" y="1369"/>
      <point x="536" y="1188" type="curve"/>
      <point x="376" y="1188"/>
      <point x="260" y="1166"/>
      <point x="188" y="1123" type="curve" smooth="yes"/>
      <point x="116" y="1080"/>
      <point x="80" y="1014"/>
      <point x="80" y="925" type="curve" smooth="yes"/>
      <point x="80" y="798"/>
      <point x="153" y="718"/>
      <point x="276" y="718" type="curve"/>
      <point x="338" y="719"/>
      <point x="386" y="731"/>
      <point x="431" y="758" type="curve" smooth="yes"/>
      <point x="474" y="784"/>
      <point x="509" y="823"/>
      <point x="536" y="874" type="curve"/>
      <point x="537" y="815"/>
      <point x="551" y="774"/>
      <point x="577" y="752" type="curve" smooth="yes"/>
      <point x="603" y="730"/>
      <point x="636" y="719"/>
      <point x="676" y="719" type="curve" smooth="yes"/>
      <point x="694" y="719"/>
      <point x="713" y="721"/>
      <point x="732" y="724" type="curve" smooth="yes"/>
      <point x="751" y="727"/>
      <point x="771" y="732"/>
      <point x="792" y="738" type="curve"/>
      <point x="775" y="841" type="line"/>
      <point x="761" y="837"/>
      <point x="739" y="834"/>
      <point x="721" y="834" type="curve" smooth="yes"/>
      <point x="704" y="834"/>
      <point x="691" y="840"/>
      <point x="682" y="851" type="curve" smooth="yes"/>
      <point x="673" y="862"/>
      <point x="668" y="878"/>
      <point x="668" y="899" type="curve" smooth="yes"/>
      <point x="668" y="1245" type="line" smooth="yes"/>
      <point x="668" y="1345"/>
      <point x="645" y="1416"/>
      <point x="598" y="1457" type="curve" smooth="yes"/>
      <point x="551" y="1498"/>
      <point x="485" y="1519"/>
      <point x="399" y="1519" type="curve" smooth="yes"/>
    </contour>
    <contour>
      <point x="535" y="1018"/>
      <point x="515" y="949"/>
      <point x="475" y="898" type="curve" smooth="yes"/>
      <point x="434" y="845"/>
      <point x="385" y="821"/>
      <point x="319" y="820" type="curve"/>
      <point x="241" y="820"/>
      <point x="204" y="859"/>
      <point x="204" y="938" type="curve" smooth="yes"/>
      <point x="204" y="993"/>
      <point x="232" y="1034"/>
      <point x="287" y="1062" type="curve" smooth="yes"/>
      <point x="342" y="1090"/>
      <point x="425" y="1104"/>
      <point x="535" y="1104" type="curve"/>
    </contour>
  </outline>
</glyph>
<glyph name="uni00B2" format="1">
  <advance width="782"/>
  <unicode hex="00B2"/>
  <outline>
    <contour>
      <point x="307" y="1539"/>
      <point x="242" y="1518"/>
      <point x="195" y="1476" type="curve" smooth="yes"/>
      <point x="148" y="1434"/>
      <point x="124" y="1372"/>
      <point x="124" y="1290" type="curve"/>
      <point x="249" y="1290" type="line"/>
      <point x="249" y="1338"/>
      <point x="262" y="1375"/>
      <point x="288" y="1401" type="curve" smooth="yes"/>
      <point x="314" y="1427"/>
      <point x="349" y="1440"/>
      <point x="392" y="1440" type="curve"/>
      <point x="391" y="1438" type="line"/>
      <point x="435" y="1438"/>
      <point x="469" y="1426"/>
      <point x="492" y="1402" type="curve" smooth="yes"/>
      <point x="515" y="1378"/>
      <point x="527" y="1349"/>
      <point x="527" y="1315" type="curve" smooth="yes"/>
      <point x="527" y="1298"/>
      <point x="525" y="1282"/>
      <point x="521" y="1267" type="curve" smooth="yes"/>
      <point x="517" y="1252"/>
      <point x="510" y="1237"/>
      <point x="500" y="1222" type="curve" smooth="yes"/>
      <point x="489" y="1206"/>
      <point x="475" y="1189"/>
      <point x="459" y="1171" type="curve" smooth="yes"/>
      <point x="443" y="1153"/>
      <point x="422" y="1132"/>
      <point x="397" y="1107" type="curve" smooth="yes"/>
      <point x="113" y="822" type="line"/>
      <point x="113" y="730" type="line"/>
      <point x="670" y="730" type="line"/>
      <point x="670" y="828" type="line"/>
      <point x="285" y="828" type="line"/>
      <point x="487" y="1033" type="line" smooth="yes"/>
      <point x="540" y="1088"/>
      <point x="582" y="1136"/>
      <point x="612" y="1178" type="curve" smooth="yes"/>
      <point x="642" y="1220"/>
      <point x="657" y="1266"/>
      <point x="657" y="1315" type="curve" smooth="yes"/>
      <point x="657" y="1388"/>
      <point x="634" y="1444"/>
      <point x="588" y="1482" type="curve" smooth="yes"/>
      <point x="542" y="1520"/>
      <point x="476" y="1539"/>
      <point x="390" y="1539" type="curve" smooth="yes"/>
    </contour>
  </outline>
</glyph>
<glyph name="uni00B5" format="1">
  <advance width="1440"/>
  <unicode hex="00B5"/>
  <outline>
    <contour>
      <point x="996.999" y="1171" type="line"/>
      <point x="996.999" y="252" type="line"/>
      <point x="877" y="154"/>
      <point x="752" y="94"/>
      <point x="609" y="93.9999" type="curve" smooth="yes"/>
      <point x="452" y="94"/>
      <point x="401" y="173"/>
      <point x="401" y="337" type="curve" smooth="yes"/>
      <point x="401" y="1107" type="line" smooth="yes"/>
      <point x="401" y="1150"/>
      <point x="378" y="1169"/>
      <point x="333" y="1169" type="curve" smooth="yes"/>
      <point x="241" y="1169" type="line"/>
      <point x="241" y="-479" type="line"/>
      <point x="390" y="-467" type="line"/>
      <point x="390" y="47" type="line"/>
      <point x="437" y="-12"/>
      <point x="513" y="-32"/>
      <point x="598" y="-32" type="curve" smooth="yes"/>
      <point x="740" y="-32"/>
      <point x="873" y="31"/>
      <point x="999.999" y="126" type="curve"/>
      <point x="1020" y="20"/>
      <point x="1085" y="-41"/>
      <point x="1193" y="-41" type="curve" smooth="yes"/>
      <point x="1353" y="-40" type="line"/>
      <point x="1352" y="108" type="line"/>
      <point x="1246" y="108" type="line" smooth="yes"/>
      <point x="1182" y="108"/>
      <point x="1158" y="149"/>
      <point x="1158" y="218" type="curve" smooth="yes"/>
      <point x="1158" y="1105" type="line" smooth="yes"/>
      <point x="1158" y="1147"/>
      <point x="1144" y="1171"/>
      <point x="1098" y="1171" type="curve" smooth="yes"/>
    </contour>
  </outline>
</glyph>
<glyph name="periodcentered" format="1">
  <advance width="537"/>
  <unicode hex="00B7"/>
  <outline>
    <contour>
      <point x="207" y="744"/>
      <point x="157" y="691"/>
      <point x="157" y="629" type="curve" smooth="yes"/>
      <point x="157" y="568"/>
      <point x="207" y="518"/>
      <point x="268" y="518" type="curve" smooth="yes"/>
      <point x="330" y="518"/>
      <point x="381" y="568"/>
      <point x="381" y="631" type="curve"/>
      <point x="381" y="692"/>
      <point x="329" y="744"/>
      <point x="268" y="744" type="curve" smooth="yes"/>
    </contour>
    <contour>
      <point x="265" y="1079" type="move" name="_dot"/>
    </contour>
  </outline>
</glyph>
<glyph name="onehalf" format="1">
  <advance width="1690"/>
  <unicode hex="00BD"/>
  <outline>
    <contour>
      <point x="940" y="1628" type="line"/>
      <point x="449" y="-135" type="line"/>
      <point x="575" y="-135" type="line"/>
      <point x="1067" y="1628" type="line"/>
    </contour>
    <contour>
      <point x="309" y="1524" type="line"/>
      <point x="88" y="1458" type="line"/>
      <point x="97.9999" y="1364" type="line"/>
      <point x="281" y="1403" type="line"/>
      <point x="281" y="731" type="line"/>
      <point x="414" y="731" type="line"/>
      <point x="414" y="1524" type="line"/>
    </contour>
    <contour>
      <point x="1131" y="807"/>
      <point x="1031" y="723"/>
      <point x="1031" y="558" type="curve"/>
      <point x="1156" y="558" type="line"/>
      <point x="1156" y="650"/>
      <point x="1210" y="708"/>
      <point x="1299" y="708" type="curve"/>
      <point x="1298" y="707" type="line"/>
      <point x="1380" y="707"/>
      <point x="1434" y="660"/>
      <point x="1434" y="584" type="curve" smooth="yes"/>
      <point x="1434" y="551"/>
      <point x="1425" y="519"/>
      <point x="1407" y="491" type="curve" smooth="yes"/>
      <point x="1384" y="455"/>
      <point x="1344" y="415"/>
      <point x="1306" y="376" type="curve" smooth="yes"/>
      <point x="1021" y="91" type="line"/>
      <point x="1021" y="-0.999999" type="line"/>
      <point x="1578" y="-0.999999" type="line"/>
      <point x="1578" y="96.9999" type="line"/>
      <point x="1193" y="96.9999" type="line"/>
      <point x="1396" y="302" type="line" smooth="yes"/>
      <point x="1486" y="396"/>
      <point x="1566" y="472"/>
      <point x="1566" y="583" type="curve" smooth="yes"/>
      <point x="1566" y="739"/>
      <point x="1461" y="807"/>
      <point x="1297" y="807" type="curve" smooth="yes"/>
    </contour>
  </outline>
</glyph>
<glyph name="threequarters" format="1">
  <advance width="1690"/>
  <unicode hex="00BE"/>
  <outline>
    <contour>
      <point x="1055" y="1628" type="line"/>
      <point x="563" y="-135" type="line"/>
      <point x="690" y="-135" type="line"/>
      <point x="1182" y="1628" type="line"/>
    </contour>
    <contour>
      <point x="233" y="1538"/>
      <point x="129" y="1444"/>
      <point x="129" y="1287" type="curve"/>
      <point x="248" y="1287" type="line"/>
      <point x="248" y="1379"/>
      <point x="299" y="1439"/>
      <point x="388" y="1439" type="curve" smooth="yes"/>
      <point x="474" y="1439"/>
      <point x="531" y="1394"/>
      <point x="531" y="1312" type="curve" smooth="yes"/>
      <point x="531" y="1208"/>
      <point x="454" y="1168"/>
      <point x="339" y="1168" type="curve" smooth="yes"/>
      <point x="283" y="1169" type="line"/>
      <point x="283" y="1094" type="line"/>
      <point x="344" y="1094" type="line" smooth="yes"/>
      <point x="466" y="1094"/>
      <point x="550" y="1057"/>
      <point x="550" y="948" type="curve" smooth="yes"/>
      <point x="550" y="860"/>
      <point x="484" y="815"/>
      <point x="390" y="815" type="curve" smooth="yes"/>
      <point x="293" y="815"/>
      <point x="238" y="874"/>
      <point x="238" y="968.999" type="curve"/>
      <point x="117" y="968.999" type="line"/>
      <point x="117" y="804"/>
      <point x="224" y="716"/>
      <point x="396" y="716" type="curve" smooth="yes"/>
      <point x="566" y="716"/>
      <point x="681" y="788"/>
      <point x="681" y="949" type="curve" smooth="yes"/>
      <point x="681" y="1037"/>
      <point x="624" y="1107"/>
      <point x="535" y="1134" type="curve"/>
      <point x="616" y="1165"/>
      <point x="664" y="1231"/>
      <point x="664" y="1314" type="curve" smooth="yes"/>
      <point x="664" y="1463"/>
      <point x="557" y="1538"/>
      <point x="395" y="1538" type="curve" smooth="yes"/>
    </contour>
    <contour>
      <point x="1355" y="257" type="line"/>
      <point x="1095" y="257" type="line"/>
      <point x="1355" y="667" type="line"/>
    </contour>
    <contour>
      <point x="1289" y="792" type="line"/>
      <point x="953" y="249" type="line"/>
      <point x="953" y="171" type="line"/>
      <point x="1355" y="171" type="line"/>
      <point x="1355" y="-1" type="line"/>
      <point x="1488" y="-1" type="line"/>
      <point x="1488" y="171" type="line"/>
      <point x="1580" y="171" type="line"/>
      <point x="1580" y="257" type="line"/>
      <point x="1488" y="257" type="line"/>
      <point x="1488" y="792" type="line"/>
    </contour>
  </outline>
</glyph>
<glyph name="Oslash" format="1">
  <advance width="1633"/>
  <unicode hex="00D8"/>
  <outline>
    <contour>
      <point x="1196.5" y="1442.95" type="line"/>
      <point x="1088.26" y="1498.66"/>
      <point x="960.079" y="1530"/>
      <point x="815" y="1530" type="curve" smooth="yes"/>
      <point x="381" y="1530"/>
      <point x="40" y="1234"/>
      <point x="40" y="753" type="curve" smooth="yes"/>
      <point x="40" y="509.717"/>
      <point x="133.241" y="295.295"/>
      <point x="300.611" y="154.382" type="curve"/>
      <point x="219" y="37" type="line"/>
      <point x="337" y="-44" type="line"/>
      <point x="419.057" y="73.9141" type="line"/>
      <point x="530.2" y="13.9195"/>
      <point x="663.299" y="-19.9999"/>
      <point x="815" y="-19.9999" type="curve" smooth="yes"/>
      <point x="1249" y="-19.9999"/>
      <point x="1590" y="274"/>
      <point x="1590" y="753" type="curve" smooth="yes"/>
      <point x="1590" y="1003.11"/>
      <point x="1492.03" y="1223"/>
      <point x="1317.14" y="1364.43" type="curve"/>
      <point x="1408" y="1495" type="line"/>
      <point x="1289" y="1576" type="line"/>
    </contour>
    <contour>
      <point x="924.257" y="1394"/>
      <point x="1026.56" y="1370.43"/>
      <point x="1115.17" y="1325.97" type="curve"/>
      <point x="382.923" y="272.773" type="line"/>
      <point x="263.029" y="382.757"/>
      <point x="190" y="547.011"/>
      <point x="190" y="754" type="curve" smooth="yes"/>
      <point x="190" y="1120"/>
      <point x="425" y="1394"/>
      <point x="814" y="1394" type="curve" smooth="yes"/>
    </contour>
    <contour>
      <point x="1361.82" y="1135.42"/>
      <point x="1440" y="966.843"/>
      <point x="1440" y="754" type="curve" smooth="yes"/>
      <point x="1440" y="395"/>
      <point x="1204" y="116"/>
      <point x="814" y="116" type="curve" smooth="yes"/>
      <point x="698.165" y="116"/>
      <point x="591.325" y="141.698"/>
      <point x="499.994" y="190.219" type="curve"/>
      <point x="1234.73" y="1246.02" type="line"/>
    </contour>
    <contour>
      <point x="817" y="1495" type="move" name="top"/>
    </contour>
  </outline>
</glyph>
<glyph name="IJ" format="1">
  <advance width="1112"/>
  <unicode hex="0132"/>
  <outline>
    <contour>
      <point x="725" y="1495" type="line"/>
      <point x="725" y="1365" type="line"/>
      <point x="878" y="1365" type="line"/>
      <point x="878" y="369" type="line" smooth="yes"/>
      <point x="878" y="203"/>
      <point x="801" y="129"/>
      <point x="657" y="129" type="curve" smooth="yes"/>
      <point x="519" y="129"/>
      <point x="411" y="219"/>
      <point x="411" y="368" type="curve" smooth="yes"/>
      <point x="411" y="409" type="line"/>
      <point x="273" y="411" type="line"/>
      <point x="273" y="362" type="line" smooth="yes"/>
      <point x="273" y="126"/>
      <point x="436" y="-3"/>
      <point x="665" y="-3" type="curve" smooth="yes"/>
      <point x="895" y="-3"/>
      <point x="1026" y="123"/>
      <point x="1025" y="362" type="curve" smooth="yes"/>
      <point x="1025" y="1431" type="line" smooth="yes"/>
      <point x="1025" y="1476"/>
      <point x="1004" y="1495"/>
      <point x="956" y="1495" type="curve" smooth="yes"/>
    </contour>
    <contour>
      <point x="140" y="1495" type="line"/>
      <point x="140" y="1365" type="line"/>
      <point x="276" y="1365" type="line"/>
      <point x="276" y="700" type="line"/>
      <point x="140" y="700" type="line"/>
      <point x="140" y="570" type="line"/>
      <point x="558" y="570" type="line"/>
      <point x="558" y="700" type="line"/>
      <point x="422" y="700" type="line"/>
      <point x="422" y="1365" type="line"/>
      <point x="558" y="1365" type="line"/>
      <point x="558" y="1495" type="line"/>
    </contour>
    <contour>
      <point x="-48" y="10" type="move" name="ogonek"/>
    </contour>
    <contour>
      <point x="-327" y="1495" type="move" name="top"/>
    </contour>
  </outline>
</glyph>
<glyph name="Lslash" format="1">
  <advance width="1027"/>
  <unicode hex="0141"/>
  <outline>
    <contour>
      <point x="136" y="1495" type="line"/>
      <point x="136" y="1365" type="line"/>
      <point x="272" y="1365" type="line"/>
      <point x="272" y="863.814" type="line"/>
      <point x="88" y="790" type="line"/>
      <point x="88" y="648" type="line"/>
      <point x="272" y="721.814" type="line"/>
      <point x="272" y="0" type="line"/>
      <point x="943" y="0" type="line" smooth="yes"/>
      <point x="986" y="0"/>
      <point x="1005" y="21"/>
      <point x="1005" y="64" type="curve" smooth="yes"/>
      <point x="1005" y="261" type="line"/>
      <point x="881" y="261" type="line"/>
      <point x="881" y="131" type="line"/>
      <point x="417" y="131" type="line"/>
      <point x="417.476" y="780.173" type="line"/>
      <point x="604" y="855" type="line"/>
      <point x="604" y="997" type="line"/>
      <point x="417.58" y="922.215" type="line"/>
      <point x="418" y="1495" type="line"/>
    </contour>
    <contour>
      <point x="514" y="1495" type="move" name="top"/>
    </contour>
    <contour>
      <point x="514" y="0" type="move" name="bottom"/>
    </contour>
    <contour>
      <point x="1007" y="1495" type="move" name="topright"/>
    </contour>
  </outline>
</glyph>
<glyph name="breve" format="1">
  <advance width="870"/>
  <unicode hex="02D8"/>
  <outline>
    <contour>
      <point x="576" y="1599" type="line"/>
      <point x="576" y="1502"/>
      <point x="528" y="1446"/>
      <point x="432" y="1448" type="curve" smooth="yes"/>
      <point x="350" y="1450"/>
      <point x="291" y="1505"/>
      <point x="291" y="1597" type="curve"/>
      <point x="176" y="1597" type="line"/>
      <point x="176" y="1426"/>
      <point x="268" y="1318"/>
      <point x="437" y="1318" type="curve" smooth="yes"/>
      <point x="608" y="1318"/>
      <point x="692" y="1422"/>
      <point x="692" y="1599" type="curve"/>
    </contour>
    <contour>
      <point x="434" y="1084" type="move" name="_top"/>
    </contour>
  </outline>
</glyph>
<glyph name="endash" format="1">
  <advance width="1174"/>
  <unicode hex="2013"/>
  <outline>
    <contour>
      <point x="1036" y="707" type="line"/>
      <point x="135" y="707" type="line"/>
      <point x="135" y="594" type="line"/>
      <point x="1036" y="594" type="line"/>
    </contour>
  </outline>
</glyph>
<glyph name="quotedblright" format="1">
  <advance width="811"/>
  <unicode hex="201D"/>
  <outline>
    <contour>
      <point x="223" y="1569"/>
      <point x="168" y="1539"/>
      <point x="168" y="1458" type="curve" smooth="yes"/>
      <point x="168" y="1376"/>
      <point x="212" y="1342"/>
      <point x="212" y="1291" type="curve" smooth="yes"/>
      <point x="212" y="1240"/>
      <point x="176" y="1196"/>
      <point x="116" y="1141" type="curve"/>
      <point x="167" y="1087" type="line"/>
      <point x="227" y="1133"/>
      <point x="270" y="1169"/>
      <point x="321" y="1244" type="curve" smooth="yes"/>
      <point x="374" y="1322"/>
      <point x="390" y="1383"/>
      <point x="390" y="1436" type="curve" smooth="yes"/>
      <point x="390" y="1543"/>
      <point x="324" y="1569"/>
      <point x="280" y="1569" type="curve" smooth="yes"/>
    </contour>
    <contour>
      <point x="555" y="1569"/>
      <point x="500" y="1539"/>
      <point x="500" y="1458" type="curve" smooth="yes"/>
      <point x="500" y="1376"/>
      <point x="544" y="1342"/>
      <point x="544" y="1291" type="curve" smooth="yes"/>
      <point x="544" y="1240"/>
      <point x="508" y="1196"/>
      <point x="448" y="1141" type="curve"/>
      <point x="499" y="1087" type="line"/>
      <point x="559" y="1133"/>
      <point x="602" y="1169"/>
      <point x="653" y="1244" type="curve" smooth="yes"/>
      <point x="706" y="1322"/>
      <point x="722" y="1383"/>
      <point x="722" y="1436" type="curve" smooth="yes"/>
      <point x="722" y="1543"/>
      <point x="656" y="1569"/>
      <point x="612" y="1569" type="curve" smooth="yes"/>
    </contour>
  </outline>
</glyph>
